# xmcd
#
# Track frame offsets:
#	150
#	16084
#	32580
#	45017
#	56864
#	70162
#	84455
#	95246
#	115444
#	128657
#	143472
#	159418
#	175308
#	195167
#	214595
#
# Disc length: 3095 seconds
#
# Revision: 1
# Processed by: cddbd v1.5.2PL0 Copyright (c) Steve Scherf et al.
# Submitted via: EZCDAudioConverter 6.0.5.1
#
DISCID=bc0c150f
DTITLE=Glen Campbell - Access All Areas
DYEAR=2014
DGENRE=Country
TTITLE0=Rhinestone Cowboy
TTITLE1=Galveston
TTITLE2=By The Time I Get To Phoenix
TTITLE3=Try A Little Kindness
TTITLE4=Wichita Lineman
TTITLE5=She's Gone Gone Gone
TTITLE6=Walkin' In The Sun
TTITLE7=On A Good Night
TTITLE8=True Grit
TTITLE9=The Hand That Rocks The Cradle
TTITLE10=I Remember You
TTITLE11=Highwayman
TTITLE12=Streets Of London
TTITLE13=Mull Of Kintyre
TTITLE14=Gentle On My Mind
EXTD=
EXTT0=
EXTT1=
EXTT2=
EXTT3=
EXTT4=
EXTT5=
EXTT6=
EXTT7=
EXTT8=
EXTT9=
EXTT10=
EXTT11=
EXTT12=
EXTT13=
EXTT14=
PLAYORDER=
